<svg width="156" height="49" viewBox="0 0 156 49" fill="none" xmlns="http://www.w3.org/2000/svg">
<path d="M149.495 48.2765H6.11479C2.79775 48.2765 0.105469 45.5512 0.105469 42.1935V6.51665C0.105469 3.1589 2.79775 0.433594 6.11479 0.433594H149.495C152.812 0.433594 155.504 3.1589 155.504 6.51665V42.1935C155.498 45.5512 152.812 48.2765 149.495 48.2765Z" fill="black"/>
<path d="M9.75324 19.9849C7.23487 24.4119 8.8322 31.1339 11.6211 35.2088C13.0123 37.243 14.4229 39.0751 16.3487 39.0751C16.3873 39.0751 16.4195 39.0751 16.4582 39.0751C17.3663 39.036 18.0169 38.7556 18.6545 38.4818C19.363 38.1754 20.1037 37.8559 21.2566 37.8559C22.3516 37.8559 23.0536 38.1623 23.7299 38.4622C24.3998 38.7556 25.0825 39.0556 26.1001 39.036C28.2707 38.9969 29.6104 37.0213 30.7827 35.2805C32.0129 33.4615 32.6247 31.7011 32.8373 31.0231L32.8437 30.997C32.8824 30.8796 32.8244 30.7492 32.7149 30.6905C32.7149 30.6905 32.702 30.684 32.6956 30.684C32.3156 30.5275 28.9534 29.0149 28.9212 24.9074C28.889 21.5692 31.4396 19.8023 31.9485 19.4829L31.9742 19.4698C32.0322 19.4307 32.0708 19.3785 32.0837 19.3133C32.0966 19.2481 32.0837 19.1764 32.0451 19.1243C30.2867 16.5163 27.588 16.1251 26.4995 16.073C26.3449 16.0599 26.1774 16.0469 26.0164 16.0469C24.7411 16.0469 23.5174 16.5359 22.5319 16.9271C21.8556 17.2009 21.2695 17.4291 20.8637 17.4291C20.4064 17.4291 19.8203 17.1944 19.1376 16.9205C18.223 16.5554 17.1924 16.1382 16.0975 16.1382C16.0717 16.1382 16.046 16.1382 16.0202 16.1382C13.4825 16.1773 11.0801 17.6508 9.75324 19.9849Z" fill="white"/>
<path d="M26.5062 8.89093C24.9668 8.95613 23.1183 9.91457 22.0104 11.2251C21.0701 12.327 20.1554 14.1591 20.3938 16.0108C20.4066 16.1281 20.5033 16.2129 20.6192 16.2259C20.7223 16.2324 20.8317 16.239 20.9348 16.239C22.442 16.239 24.0651 15.3979 25.1794 14.0352C26.3452 12.6008 26.9377 10.7622 26.7574 9.11261C26.7445 8.98221 26.6286 8.88441 26.5062 8.89093Z" fill="white"/>
<path d="M44.2383 8.76562H47.1624C47.9289 8.76562 48.6116 8.92862 49.2042 9.2481C49.7967 9.56757 50.2605 10.0109 50.589 10.5782C50.9174 11.1454 51.0849 11.7843 51.0849 12.508C51.0849 13.2252 50.9174 13.8707 50.589 14.4379C50.2605 15.0052 49.7967 15.4485 49.2042 15.768C48.6116 16.0875 47.9289 16.2505 47.1624 16.2505H44.2383V8.76562ZM47.1173 15.7484C47.8001 15.7484 48.3991 15.6115 48.9208 15.3377C49.4425 15.0638 49.8418 14.6792 50.1252 14.1902C50.4086 13.7012 50.5503 13.134 50.5503 12.5015C50.5503 11.8691 50.4086 11.3084 50.1252 10.8129C49.8418 10.3239 49.4425 9.93921 48.9208 9.66537C48.3991 9.39154 47.8001 9.25462 47.1173 9.25462H44.7729V15.7484H47.1173Z" fill="white"/>
<path d="M53.5258 15.9205C53.1072 15.6792 52.7787 15.3402 52.5404 14.9099C52.3021 14.4796 52.1797 13.9906 52.1797 13.4494C52.1797 12.9083 52.3021 12.4193 52.5404 11.989C52.7787 11.5587 53.1072 11.2196 53.5258 10.9784C53.9445 10.7372 54.4147 10.6133 54.9364 10.6133C55.4581 10.6133 55.9283 10.7372 56.3469 10.9784C56.7656 11.2196 57.0941 11.5587 57.3324 11.989C57.5707 12.4193 57.6931 12.9083 57.6931 13.4494C57.6931 13.9906 57.5707 14.4796 57.3324 14.9099C57.0941 15.3402 56.7656 15.6792 56.3469 15.9205C55.9283 16.1617 55.4581 16.2856 54.9364 16.2856C54.4147 16.2856 53.9445 16.1617 53.5258 15.9205ZM56.07 15.5032C56.4049 15.3011 56.669 15.0272 56.8622 14.6686C57.0554 14.3101 57.152 13.9058 57.152 13.4494C57.152 12.993 57.0554 12.5888 56.8622 12.2302C56.669 11.8716 56.4049 11.5978 56.07 11.3957C55.735 11.1936 55.355 11.0957 54.9364 11.0957C54.5113 11.0957 54.1377 11.1936 53.8028 11.3957C53.4679 11.5978 53.2038 11.8716 53.0106 12.2302C52.8173 12.5888 52.7207 12.993 52.7207 13.4494C52.7207 13.9058 52.8173 14.3101 53.0106 14.6686C53.2038 15.0272 53.4679 15.3011 53.8028 15.5032C54.1377 15.7053 54.5177 15.8031 54.9364 15.8031C55.355 15.8031 55.735 15.7053 56.07 15.5032Z" fill="white"/>
<path d="M67.0317 10.6641L64.9448 16.2386H64.4489L62.594 11.4008L60.7261 16.2386H60.2431L58.1562 10.6641H58.6651L60.5007 15.6387L62.3814 10.6641H62.8323L64.7001 15.6322L66.555 10.6641H67.0317Z" fill="white"/>
<path d="M72.5847 11.2274C72.984 11.6317 73.1837 12.2185 73.1837 12.9813V16.2412H72.6555V13.0269C72.6555 12.401 72.501 11.9251 72.1854 11.5991C71.8698 11.2731 71.4318 11.1101 70.8714 11.1101C70.2273 11.1101 69.7121 11.3057 69.3385 11.6969C68.9649 12.0881 68.7781 12.6162 68.7781 13.2747V16.2412H68.25V10.6667H68.7588V11.8729C68.9456 11.4817 69.229 11.1753 69.609 10.9536C69.9826 10.7319 70.427 10.6211 70.9423 10.6211C71.6379 10.6211 72.1854 10.8232 72.5847 11.2274Z" fill="white"/>
<path d="M75.3613 8.31641H75.8895V16.2381H75.3613V8.31641Z" fill="white"/>
<path d="M78.8579 15.9205C78.4392 15.6792 78.1107 15.3402 77.8724 14.9099C77.6341 14.4796 77.5117 13.9906 77.5117 13.4494C77.5117 12.9083 77.6341 12.4193 77.8724 11.989C78.1107 11.5587 78.4392 11.2196 78.8579 10.9784C79.2765 10.7372 79.7467 10.6133 80.2684 10.6133C80.7901 10.6133 81.2603 10.7372 81.679 10.9784C82.0976 11.2196 82.4261 11.5587 82.6644 11.989C82.9027 12.4193 83.0251 12.9083 83.0251 13.4494C83.0251 13.9906 82.9027 14.4796 82.6644 14.9099C82.4261 15.3402 82.0976 15.6792 81.679 15.9205C81.2603 16.1617 80.7901 16.2856 80.2684 16.2856C79.7403 16.2856 79.2701 16.1617 78.8579 15.9205ZM81.3956 15.5032C81.7305 15.3011 81.9946 15.0272 82.1878 14.6686C82.381 14.3101 82.4776 13.9058 82.4776 13.4494C82.4776 12.993 82.381 12.5888 82.1878 12.2302C81.9946 11.8716 81.7305 11.5978 81.3956 11.3957C81.0606 11.1936 80.6806 11.0957 80.262 11.0957C79.8369 11.0957 79.4633 11.1936 79.1284 11.3957C78.7934 11.5978 78.5294 11.8716 78.3361 12.2302C78.1429 12.5888 78.0463 12.993 78.0463 13.4494C78.0463 13.9058 78.1429 14.3101 78.3361 14.6686C78.5294 15.0272 78.7934 15.3011 79.1284 15.5032C79.4633 15.7053 79.8433 15.8031 80.262 15.8031C80.6871 15.8031 81.0606 15.7053 81.3956 15.5032Z" fill="white"/>
<path d="M88.0616 11.1492C88.4287 11.5013 88.609 12.0164 88.609 12.7009V16.2347H88.1002V15.2437C87.9263 15.5697 87.6687 15.824 87.3273 16.0065C86.9924 16.1891 86.5867 16.2804 86.1165 16.2804C85.5047 16.2804 85.0216 16.1369 84.6674 15.8435C84.3132 15.5501 84.1328 15.1655 84.1328 14.6895C84.1328 14.2266 84.2938 13.8484 84.6223 13.5616C84.9508 13.2747 85.4725 13.1312 86.1874 13.1312H88.0745V12.6814C88.0745 12.1598 87.9328 11.7686 87.6558 11.4948C87.3789 11.2274 86.9731 11.0905 86.4385 11.0905C86.0714 11.0905 85.7236 11.1557 85.3887 11.2796C85.0538 11.41 84.7704 11.5795 84.5386 11.7947L84.2745 11.41C84.5515 11.1622 84.8799 10.9666 85.2664 10.8297C85.6528 10.6928 86.0586 10.6211 86.4772 10.6211C87.1663 10.6211 87.6945 10.7971 88.0616 11.1492ZM87.3595 15.5175C87.6816 15.3024 87.9199 14.9959 88.0809 14.5852V13.5355H86.2002C85.6592 13.5355 85.2664 13.6333 85.0216 13.8354C84.7769 14.0375 84.6545 14.3113 84.6545 14.6569C84.6545 15.022 84.7898 15.3089 85.0538 15.5175C85.3179 15.7262 85.6979 15.8305 86.1809 15.8305C86.6511 15.8435 87.0375 15.7327 87.3595 15.5175Z" fill="white"/>
<path d="M95.6879 8.31641V16.2381H95.1727V14.9276C94.9537 15.3644 94.651 15.6969 94.2516 15.9316C93.8587 16.1663 93.4143 16.2837 92.9119 16.2837C92.3967 16.2837 91.9329 16.1598 91.5207 15.9186C91.1085 15.6774 90.78 15.3448 90.5417 14.9145C90.3034 14.4842 90.1874 14.0017 90.1874 13.4541C90.1874 12.9064 90.3034 12.4174 90.5417 11.9871C90.78 11.5568 91.102 11.2243 91.5207 10.983C91.9329 10.7418 92.3967 10.6244 92.9119 10.6244C93.4014 10.6244 93.8458 10.7418 94.2387 10.9765C94.6316 11.2112 94.9344 11.5372 95.1598 11.961V8.31641H95.6879ZM94.0777 15.5013C94.4126 15.2992 94.6767 15.0254 94.8699 14.6668C95.0632 14.3082 95.1598 13.904 95.1598 13.4476C95.1598 12.9912 95.0632 12.5869 94.8699 12.2283C94.6767 11.8697 94.4126 11.5959 94.0777 11.3938C93.7428 11.1917 93.3628 11.0939 92.9441 11.0939C92.519 11.0939 92.1455 11.1917 91.8105 11.3938C91.4756 11.5959 91.2115 11.8697 91.0183 12.2283C90.8251 12.5869 90.7285 12.9912 90.7285 13.4476C90.7285 13.904 90.8251 14.3082 91.0183 14.6668C91.2115 15.0254 91.4756 15.2992 91.8105 15.5013C92.1455 15.7034 92.5255 15.8012 92.9441 15.8012C93.3628 15.8012 93.7428 15.7034 94.0777 15.5013Z" fill="white"/>
<path d="M101.37 15.9205C100.951 15.6792 100.622 15.3402 100.384 14.9099C100.146 14.4796 100.023 13.9906 100.023 13.4494C100.023 12.9083 100.146 12.4193 100.384 11.989C100.622 11.5587 100.951 11.2196 101.37 10.9784C101.788 10.7372 102.258 10.6133 102.78 10.6133C103.302 10.6133 103.772 10.7372 104.191 10.9784C104.609 11.2196 104.938 11.5587 105.176 11.989C105.414 12.4193 105.537 12.9083 105.537 13.4494C105.537 13.9906 105.414 14.4796 105.176 14.9099C104.938 15.3402 104.609 15.6792 104.191 15.9205C103.772 16.1617 103.302 16.2856 102.78 16.2856C102.258 16.2856 101.788 16.1617 101.37 15.9205ZM103.914 15.5032C104.249 15.3011 104.513 15.0272 104.706 14.6686C104.899 14.3101 104.996 13.9058 104.996 13.4494C104.996 12.993 104.899 12.5888 104.706 12.2302C104.513 11.8716 104.249 11.5978 103.914 11.3957C103.579 11.1936 103.199 11.0957 102.78 11.0957C102.361 11.0957 101.981 11.1936 101.647 11.3957C101.312 11.5978 101.048 11.8716 100.854 12.2302C100.661 12.5888 100.564 12.993 100.564 13.4494C100.564 13.9058 100.661 14.3101 100.854 14.6686C101.048 15.0272 101.312 15.3011 101.647 15.5032C101.981 15.7053 102.361 15.8031 102.78 15.8031C103.199 15.8031 103.579 15.7053 103.914 15.5032Z" fill="white"/>
<path d="M111.487 11.2274C111.886 11.6317 112.086 12.2185 112.086 12.9813V16.2412H111.558V13.0269C111.558 12.401 111.403 11.9251 111.088 11.5991C110.772 11.2731 110.334 11.1101 109.774 11.1101C109.13 11.1101 108.614 11.3057 108.241 11.6969C107.867 12.0881 107.68 12.6162 107.68 13.2747V16.2412H107.152V10.6667H107.661V11.8729C107.848 11.4817 108.131 11.1753 108.511 10.9536C108.885 10.7319 109.329 10.6211 109.845 10.6211C110.54 10.6211 111.088 10.8232 111.487 11.2274Z" fill="white"/>
<path d="M119.706 15.8843C119.57 16.0147 119.403 16.1125 119.203 16.1777C119.004 16.2429 118.791 16.2821 118.578 16.2821C118.102 16.2821 117.728 16.1517 117.471 15.8843C117.213 15.617 117.078 15.2454 117.078 14.7694V11.1248H116.066V10.6684H117.078V9.44922H117.606V10.6684H119.358V11.1248H117.606V14.7108C117.606 15.0759 117.69 15.3497 117.863 15.5388C118.037 15.7279 118.289 15.8191 118.63 15.8191C118.971 15.8191 119.261 15.7148 119.487 15.5062L119.706 15.8843Z" fill="white"/>
<path d="M125.497 11.2282C125.896 11.6324 126.096 12.2192 126.096 12.982V16.242H125.568V13.0277C125.568 12.4018 125.413 11.9258 125.097 11.5998C124.782 11.2738 124.344 11.1108 123.783 11.1108C123.139 11.1108 122.624 11.3064 122.251 11.6976C121.877 12.0888 121.69 12.6169 121.69 13.2754V16.242H121.162V8.32031H121.69V11.8345C121.877 11.4499 122.16 11.1499 122.534 10.9413C122.908 10.7327 123.345 10.6284 123.854 10.6284C124.556 10.6218 125.097 10.824 125.497 11.2282Z" fill="white"/>
<path d="M132.934 13.5772H128.2C128.213 14.014 128.323 14.3987 128.529 14.7377C128.735 15.0768 129.012 15.3376 129.36 15.5201C129.707 15.7027 130.1 15.8005 130.538 15.8005C130.899 15.8005 131.227 15.7353 131.536 15.6049C131.846 15.4745 132.097 15.2789 132.303 15.0246L132.612 15.3767C132.374 15.6701 132.071 15.8918 131.71 16.0482C131.35 16.2047 130.957 16.283 130.532 16.283C129.984 16.283 129.495 16.1591 129.063 15.9178C128.632 15.6766 128.297 15.3441 128.059 14.9138C127.814 14.4835 127.691 14.001 127.691 13.4533C127.691 12.9122 127.807 12.4232 128.033 11.9929C128.258 11.5626 128.574 11.2235 128.98 10.9823C129.379 10.7411 129.83 10.6172 130.332 10.6172C130.834 10.6172 131.279 10.7345 131.678 10.9758C132.077 11.217 132.387 11.5495 132.618 11.9733C132.844 12.4036 132.96 12.8861 132.96 13.4273L132.934 13.5772ZM129.276 11.3539C128.967 11.53 128.715 11.7712 128.535 12.0907C128.348 12.4102 128.239 12.7622 128.213 13.1665H132.432C132.412 12.7687 132.303 12.4102 132.116 12.0972C131.929 11.7842 131.678 11.5365 131.369 11.3605C131.06 11.1844 130.712 11.0931 130.326 11.0931C129.933 11.0931 129.585 11.1779 129.276 11.3539Z" fill="white"/>
<path d="M52.0447 32.7643H45.7326L44.4895 35.7178H42.0742L47.7551 22.9453H50.0609L55.761 35.7178H53.3071L52.0447 32.7643ZM51.2718 30.8996L48.8951 25.312L46.5313 30.8996H51.2718Z" fill="white"/>
<path d="M64.9979 26.4866C65.7386 26.8973 66.3183 27.4841 66.7369 28.2404C67.1556 28.9967 67.3681 29.8639 67.3681 30.8484C67.3681 31.8329 67.1556 32.7065 66.7369 33.4694C66.3183 34.2322 65.7386 34.819 64.9979 35.2297C64.2572 35.6405 63.4199 35.8491 62.486 35.8491C61.1849 35.8491 60.1608 35.4123 59.4008 34.5321V39.259H57.1465V25.978H59.2977V27.2559C59.6713 26.793 60.1286 26.4475 60.6761 26.2127C61.2235 25.9845 61.829 25.8672 62.486 25.8672C63.4263 25.8672 64.2636 26.0758 64.9979 26.4866ZM64.2765 33.0586C64.8111 32.4979 65.0816 31.7612 65.0816 30.8484C65.0816 29.9356 64.8111 29.1988 64.2765 28.6381C63.7419 28.0774 63.0592 27.7971 62.2283 27.7971C61.6873 27.7971 61.1978 27.9209 60.7662 28.1687C60.3347 28.4165 59.9933 28.7751 59.7357 29.238C59.4845 29.7009 59.3557 30.2355 59.3557 30.8419C59.3557 31.4482 59.4845 31.9828 59.7357 32.4457C59.9869 32.9087 60.3283 33.2673 60.7662 33.515C61.1978 33.7628 61.6873 33.8866 62.2283 33.8866C63.0656 33.8932 63.7419 33.6128 64.2765 33.0586Z" fill="white"/>
<path d="M77.3709 26.4866C78.1116 26.8973 78.6913 27.4841 79.11 28.2404C79.5286 28.9967 79.7412 29.8639 79.7412 30.8484C79.7412 31.8329 79.5286 32.7065 79.11 33.4694C78.6913 34.2322 78.1116 34.819 77.3709 35.2297C76.6302 35.6405 75.7929 35.8491 74.859 35.8491C73.5579 35.8491 72.5338 35.4123 71.7738 34.5321V39.259H69.5195V25.978H71.6643V27.2559C72.0379 26.793 72.4952 26.4475 73.0427 26.2127C73.5902 25.9845 74.1956 25.8672 74.8526 25.8672C75.7929 25.8672 76.6302 26.0758 77.3709 26.4866ZM76.6496 33.0586C77.1841 32.4979 77.4547 31.7612 77.4547 30.8484C77.4547 29.9356 77.1841 29.1988 76.6496 28.6381C76.115 28.0774 75.4322 27.7971 74.6014 27.7971C74.0603 27.7971 73.5708 27.9209 73.1393 28.1687C72.7078 28.4165 72.3664 28.7751 72.1088 29.238C71.8576 29.7009 71.7287 30.2355 71.7287 30.8419C71.7287 31.4482 71.8576 31.9828 72.1088 32.4457C72.36 32.9087 72.7013 33.2673 73.1393 33.515C73.5708 33.7628 74.0603 33.8866 74.6014 33.8866C75.4322 33.8932 76.115 33.6128 76.6496 33.0586Z" fill="white"/>
<path d="M88.1649 35.482C87.2568 35.2017 86.5418 34.83 86.0137 34.3671L86.8252 32.522C87.3405 32.9327 87.9781 33.2718 88.7253 33.5326C89.4788 33.7934 90.2324 33.9238 90.986 33.9238C91.9264 33.9238 92.622 33.7738 93.0857 33.4674C93.5495 33.1609 93.7813 32.7632 93.7813 32.2612C93.7813 31.8961 93.6525 31.5962 93.3949 31.3549C93.1373 31.1202 92.8088 30.9311 92.4094 30.8007C92.0101 30.6638 91.4691 30.5139 90.7863 30.3443C89.8267 30.1162 89.0473 29.8814 88.4547 29.6532C87.8622 29.425 87.3469 29.0599 86.9218 28.5644C86.4967 28.0689 86.2842 27.4039 86.2842 26.5693C86.2842 25.8652 86.471 25.2197 86.851 24.646C87.231 24.0657 87.7978 23.6093 88.5642 23.2703C89.3243 22.9312 90.2646 22.7617 91.366 22.7617C92.1325 22.7617 92.8925 22.8595 93.6396 23.0551C94.3868 23.2507 95.0309 23.5311 95.5655 23.8962L94.8248 25.7413C94.2708 25.4153 93.6976 25.161 93.0922 24.9915C92.4932 24.822 91.907 24.7372 91.3403 24.7372C90.4128 24.7372 89.7236 24.8937 89.2792 25.2132C88.8283 25.5327 88.6029 25.9499 88.6029 26.4715C88.6029 26.8366 88.7317 27.1366 88.9893 27.3648C89.247 27.593 89.5755 27.7755 89.9748 27.9124C90.3741 28.0493 90.9152 28.1993 91.5979 28.3688C92.5383 28.5905 93.3047 28.8187 93.9037 29.0534C94.5027 29.2881 95.018 29.6532 95.4431 30.1422C95.8682 30.6312 96.0807 31.2832 96.0807 32.1112C96.0807 32.8154 95.8939 33.4543 95.5139 34.0281C95.1339 34.6018 94.5607 35.0582 93.7942 35.3973C93.0278 35.7363 92.0874 35.9058 90.9796 35.9058C90.0134 35.8993 89.0731 35.7624 88.1649 35.482Z" fill="white"/>
<path d="M103.984 35.1884C103.72 35.4101 103.397 35.5731 103.017 35.6839C102.637 35.7947 102.238 35.8469 101.819 35.8469C100.763 35.8469 99.9452 35.5665 99.3655 35.0058C98.7858 34.4451 98.5024 33.6301 98.5024 32.5609V27.8731H96.918V26.0475H98.5024V23.8242H100.757V26.0475H103.333V27.8731H100.757V32.5087C100.757 32.9847 100.873 33.3433 101.098 33.5975C101.324 33.8453 101.658 33.9692 102.09 33.9692C102.592 33.9692 103.017 33.8322 103.352 33.5649L103.984 35.1884Z" fill="white"/>
<path d="M107.211 35.205C106.431 34.7812 105.82 34.1879 105.382 33.4251C104.944 32.6622 104.725 31.8016 104.725 30.8432C104.725 29.8848 104.944 29.0241 105.382 28.2678C105.82 27.5115 106.431 26.9247 107.211 26.4944C107.99 26.0706 108.873 25.8555 109.845 25.8555C110.831 25.8555 111.713 26.0706 112.492 26.4944C113.272 26.9182 113.884 27.5115 114.321 28.2678C114.759 29.0241 114.978 29.8782 114.978 30.8432C114.978 31.8016 114.759 32.6622 114.321 33.4251C113.884 34.1879 113.272 34.7812 112.492 35.205C111.713 35.6288 110.831 35.8439 109.845 35.8439C108.873 35.8439 107.997 35.6288 107.211 35.205ZM111.9 33.0534C112.441 32.4927 112.711 31.756 112.711 30.8432C112.711 29.9304 112.441 29.1937 111.9 28.6329C111.359 28.0722 110.676 27.7919 109.845 27.7919C109.014 27.7919 108.331 28.0722 107.797 28.6329C107.262 29.1937 106.992 29.9304 106.992 30.8432C106.992 31.756 107.262 32.4927 107.797 33.0534C108.331 33.6141 109.014 33.8945 109.845 33.8945C110.676 33.888 111.359 33.6076 111.9 33.0534Z" fill="white"/>
<path d="M122.72 25.8672V28.0383C122.527 27.9992 122.353 27.9861 122.198 27.9861C121.322 27.9861 120.633 28.2469 120.144 28.762C119.648 29.2771 119.403 30.0269 119.403 30.9983V35.7252H117.148V25.978H119.293V27.3994C119.937 26.3757 121.084 25.8672 122.72 25.8672Z" fill="white"/>
<path d="M133.556 31.5773H126C126.136 32.2945 126.477 32.8617 127.037 33.2855C127.598 33.7028 128.293 33.9179 129.118 33.9179C130.174 33.9179 131.044 33.5658 131.733 32.8617L132.944 34.27C132.512 34.7916 131.965 35.1893 131.301 35.4566C130.638 35.7239 129.897 35.8608 129.066 35.8608C128.01 35.8608 127.076 35.6457 126.271 35.2219C125.466 34.7981 124.841 34.2048 124.403 33.442C123.965 32.6791 123.746 31.8185 123.746 30.8601C123.746 29.9082 123.959 29.0541 124.384 28.2978C124.809 27.535 125.401 26.9417 126.161 26.5179C126.921 26.0941 127.772 25.8789 128.718 25.8789C129.659 25.8789 130.496 26.0875 131.23 26.5113C131.971 26.9286 132.544 27.5219 132.963 28.2847C133.375 29.0476 133.588 29.9212 133.588 30.9188C133.588 31.0622 133.575 31.2839 133.556 31.5773ZM126.896 28.3369C126.4 28.7672 126.091 29.341 125.988 30.0647H131.449C131.353 29.3605 131.056 28.7868 130.567 28.3499C130.071 27.9131 129.459 27.6914 128.731 27.6914C128.004 27.6914 127.392 27.9066 126.896 28.3369Z" fill="white"/>
</svg>
