<svg width="156" height="48" viewBox="0 0 156 48" fill="none" xmlns="http://www.w3.org/2000/svg">
<path d="M149.389 47.8364H6.00932C2.69228 47.8364 0 45.1111 0 41.7533V6.08305C0 2.72531 2.69228 0 6.00932 0H149.389C152.706 0 155.398 2.72531 155.398 6.08305V41.7599C155.392 45.1111 152.706 47.8364 149.389 47.8364Z" fill="black"/>
<path d="M48.3286 13.6927H44.0454L43.1051 15.7986H42.5254L45.9197 8.32031H46.4608L49.8551 15.7986H49.2754L48.3286 13.6927ZM48.1289 13.2363L46.1838 8.92014L44.2515 13.2363H48.1289Z" fill="white"/>
<path d="M55.1735 10.2266L52.6809 15.8011H52.1399L49.6602 10.2266H50.2205L52.4168 15.2143L54.6325 10.2266H55.1735Z" fill="white"/>
<path d="M59.587 10.7156C59.9542 11.0677 60.1345 11.5828 60.1345 12.2674V15.8011H59.6257V14.8101C59.4518 15.1361 59.1942 15.3904 58.8528 15.5729C58.5179 15.7555 58.1121 15.8468 57.642 15.8468C57.0301 15.8468 56.547 15.7033 56.1928 15.4099C55.8385 15.1166 55.6582 14.7319 55.6582 14.2559C55.6582 13.793 55.8192 13.4149 56.1477 13.128C56.4762 12.8411 56.9979 12.6977 57.7128 12.6977H59.5999V12.2478C59.5999 11.7262 59.4582 11.335 59.1813 11.0612C58.9043 10.7939 58.4986 10.6569 57.964 10.6569C57.5969 10.6569 57.2491 10.7221 56.9141 10.846C56.5792 10.9764 56.2958 11.1459 56.064 11.3611L55.7999 10.9764C56.0769 10.7287 56.4053 10.5331 56.7918 10.3961C57.1782 10.2592 57.584 10.1875 58.0026 10.1875C58.6918 10.1875 59.2199 10.3635 59.587 10.7156ZM58.885 15.084C59.207 14.8688 59.4454 14.5624 59.6064 14.1516V13.1084H57.7257C57.1847 13.1084 56.7918 13.2062 56.547 13.4083C56.3023 13.6105 56.1799 13.8843 56.1799 14.2298C56.1799 14.595 56.3152 14.8818 56.5792 15.0905C56.8433 15.2991 57.2233 15.4034 57.7064 15.4034C58.1765 15.4099 58.563 15.2991 58.885 15.084Z" fill="white"/>
<path d="M62.2655 8.74588C62.1818 8.66112 62.1367 8.56333 62.1367 8.43945C62.1367 8.31557 62.1818 8.21777 62.2655 8.12649C62.3493 8.04173 62.4523 7.99609 62.5747 7.99609C62.6971 7.99609 62.7937 8.03521 62.8839 8.11997C62.9676 8.20473 63.0127 8.30253 63.0127 8.42641C63.0127 8.55029 62.9676 8.64808 62.8839 8.73936C62.8001 8.82412 62.6971 8.86976 62.5747 8.86976C62.4459 8.86976 62.3493 8.83064 62.2655 8.74588ZM62.3042 10.2259H62.8323V15.8004H62.3042V10.2259Z" fill="white"/>
<path d="M65.0625 7.87891H65.5907V15.8006H65.0625V7.87891Z" fill="white"/>
<path d="M71.2395 10.7156C71.6066 11.0677 71.7869 11.5828 71.7869 12.2674V15.8011H71.2781V14.8101C71.1042 15.1361 70.8466 15.3904 70.5052 15.5729C70.1703 15.7555 69.7645 15.8468 69.2943 15.8468C68.6825 15.8468 68.1994 15.7033 67.8451 15.4099C67.4909 15.1166 67.3105 14.7319 67.3105 14.2559C67.3105 13.793 67.4716 13.4149 67.8 13.128C68.1285 12.8411 68.6502 12.6977 69.3652 12.6977H71.2523V12.2478C71.2523 11.7262 71.1106 11.335 70.8337 11.0612C70.5567 10.7939 70.151 10.6569 69.6164 10.6569C69.2492 10.6569 68.9014 10.7221 68.5665 10.846C68.2316 10.9764 67.9482 11.1459 67.7163 11.3611L67.4522 10.9764C67.7292 10.7287 68.0577 10.5331 68.4441 10.3961C68.8306 10.2592 69.2364 10.1875 69.655 10.1875C70.3506 10.1875 70.8788 10.3635 71.2395 10.7156ZM70.5374 15.084C70.8595 14.8688 71.0978 14.5624 71.2588 14.1516V13.1084H69.3781C68.837 13.1084 68.4441 13.2062 68.1994 13.4083C67.9546 13.6105 67.8323 13.8843 67.8323 14.2298C67.8323 14.595 67.9675 14.8818 68.2316 15.0905C68.4957 15.2991 68.8757 15.4034 69.3587 15.4034C69.8289 15.4099 70.2218 15.2991 70.5374 15.084Z" fill="white"/>
<path d="M78.1175 10.5391C78.5297 10.7804 78.8582 11.1129 79.0965 11.5432C79.3348 11.9735 79.4507 12.4625 79.4507 13.0102C79.4507 13.5578 79.3348 14.0468 79.0965 14.4706C78.8582 14.9009 78.5361 15.2334 78.1175 15.4747C77.7053 15.7159 77.2351 15.8398 76.7262 15.8398C76.2367 15.8398 75.7859 15.7224 75.393 15.4812C74.9937 15.24 74.6909 14.9075 74.4719 14.4837V15.7942H73.9631V7.87903H74.4913V11.4976C74.7103 11.0868 75.013 10.7608 75.4123 10.5326C75.8052 10.3044 76.2432 10.1871 76.7327 10.1871C77.2415 10.1871 77.7053 10.3044 78.1175 10.5391ZM77.8341 15.0639C78.169 14.8618 78.4395 14.588 78.6327 14.2294C78.826 13.8708 78.9226 13.4666 78.9226 13.0102C78.9226 12.5538 78.826 12.1495 78.6327 11.791C78.4395 11.4324 78.1754 11.1585 77.8341 10.9564C77.4991 10.7543 77.1191 10.6565 76.694 10.6565C76.2689 10.6565 75.8954 10.7543 75.5604 10.9564C75.2255 11.1585 74.9615 11.4324 74.7682 11.791C74.575 12.1495 74.4784 12.5538 74.4784 13.0102C74.4784 13.4666 74.575 13.8708 74.7682 14.2294C74.9615 14.588 75.2255 14.8618 75.5604 15.0639C75.8954 15.266 76.2754 15.3638 76.694 15.3638C77.1127 15.3638 77.4991 15.266 77.8341 15.0639Z" fill="white"/>
<path d="M81.0859 7.87891H81.6139V15.8006H81.0859V7.87891Z" fill="white"/>
<path d="M88.4868 13.1397H83.753C83.7658 13.5766 83.8753 13.9612 84.0814 14.3003C84.2875 14.6393 84.5645 14.9001 84.9123 15.0827C85.2601 15.2652 85.6529 15.363 86.0909 15.363C86.4516 15.363 86.78 15.2978 87.0892 15.1674C87.3983 15.037 87.6495 14.8414 87.8556 14.5871L88.1648 14.9392C87.9265 15.2326 87.6238 15.4543 87.2631 15.6108C86.9024 15.7672 86.5095 15.8455 86.0845 15.8455C85.537 15.8455 85.0475 15.7216 84.616 15.4804C84.1845 15.2391 83.8496 14.9066 83.6113 14.4763C83.3665 14.046 83.2441 13.5635 83.2441 13.0158C83.2441 12.4747 83.3601 11.9922 83.5855 11.5554C83.8109 11.1251 84.1265 10.786 84.5323 10.5448C84.9316 10.3036 85.3824 10.1797 85.8848 10.1797C86.3872 10.1797 86.8316 10.297 87.2309 10.5383C87.6302 10.7795 87.9394 11.112 88.1712 11.5358C88.3967 11.9661 88.5126 12.4486 88.5126 12.9898L88.4868 13.1397ZM84.8285 10.9164C84.5194 11.0925 84.2682 11.3337 84.0879 11.6532C83.9011 11.9727 83.7916 12.3247 83.7658 12.729H87.9844C87.9651 12.3313 87.8556 11.9727 87.6689 11.6597C87.4821 11.3468 87.2309 11.099 86.9217 10.923C86.6126 10.7469 86.2648 10.6556 85.8784 10.6556C85.4855 10.6556 85.1377 10.7404 84.8285 10.9164Z" fill="white"/>
<path d="M93.5903 15.483C93.1716 15.2418 92.8431 14.9027 92.6048 14.4724C92.3665 14.0421 92.2441 13.5531 92.2441 13.0119C92.2441 12.4708 92.3665 11.9883 92.6048 11.5515C92.8431 11.1212 93.1716 10.7821 93.5903 10.5409C94.0089 10.2997 94.4791 10.1758 95.0008 10.1758C95.5225 10.1758 95.9927 10.2997 96.4114 10.5409C96.83 10.7821 97.1585 11.1212 97.3968 11.5515C97.6351 11.9818 97.7575 12.4708 97.7575 13.0119C97.7575 13.5531 97.6351 14.0421 97.3968 14.4724C97.1585 14.9027 96.83 15.2418 96.4114 15.483C95.9927 15.7242 95.5225 15.8481 95.0008 15.8481C94.4791 15.8481 94.0089 15.7242 93.5903 15.483ZM96.1344 15.0657C96.4693 14.8636 96.7334 14.5898 96.9266 14.2312C97.1199 13.8726 97.2165 13.4683 97.2165 13.0119C97.2165 12.5555 97.1199 12.1513 96.9266 11.7927C96.7334 11.4341 96.4693 11.1603 96.1344 10.9582C95.7995 10.7561 95.4195 10.6583 95.0008 10.6583C94.5822 10.6583 94.2022 10.7561 93.8672 10.9582C93.5323 11.1603 93.2682 11.4341 93.075 11.7927C92.8818 12.1513 92.7852 12.5555 92.7852 13.0119C92.7852 13.4683 92.8818 13.8726 93.075 14.2312C93.2682 14.5898 93.5323 14.8636 93.8672 15.0657C94.2022 15.2678 94.5822 15.3656 95.0008 15.3656C95.4195 15.3656 95.7995 15.2678 96.1344 15.0657Z" fill="white"/>
<path d="M103.714 10.7926C104.113 11.1968 104.313 11.7836 104.313 12.5464V15.8063H103.785V12.5855C103.785 11.9596 103.63 11.4837 103.314 11.1577C102.999 10.8317 102.561 10.6687 102 10.6687C101.356 10.6687 100.841 10.8643 100.467 11.2555C100.094 11.6467 99.9071 12.1748 99.9071 12.8333V15.7998H99.3789V10.2253H99.8878V11.4315C100.075 11.0403 100.358 10.7339 100.738 10.5122C101.112 10.2905 101.556 10.1797 102.071 10.1797C102.767 10.1862 103.314 10.3883 103.714 10.7926Z" fill="white"/>
<path d="M111.93 15.4469C111.795 15.5773 111.627 15.6751 111.428 15.7403C111.228 15.8055 111.016 15.8446 110.803 15.8446C110.326 15.8446 109.953 15.7142 109.695 15.4469C109.437 15.1795 109.302 14.8079 109.302 14.332V10.6873H108.291V10.2309H109.302V9.01172H109.83V10.2309H111.582V10.6873H109.83V14.2733C109.83 14.6384 109.914 14.9122 110.088 15.1013C110.262 15.2904 110.513 15.3817 110.854 15.3817C111.196 15.3817 111.486 15.2773 111.711 15.0687L111.93 15.4469Z" fill="white"/>
<path d="M117.721 10.7933C118.121 11.1975 118.32 11.7843 118.32 12.5471V15.8071H117.792V12.5863C117.792 11.9603 117.638 11.4844 117.322 11.1584C117.006 10.8324 116.568 10.6694 116.008 10.6694C115.364 10.6694 114.849 10.865 114.475 11.2562C114.102 11.6474 113.915 12.1755 113.915 12.834V15.8006H113.387V7.87891H113.915V11.3931C114.102 11.0084 114.385 10.7085 114.759 10.4999C115.132 10.2913 115.57 10.1869 116.079 10.1869C116.775 10.1869 117.322 10.3891 117.721 10.7933Z" fill="white"/>
<path d="M125.163 13.1397H120.429C120.442 13.5766 120.551 13.9612 120.757 14.3003C120.963 14.6393 121.24 14.9001 121.588 15.0827C121.936 15.2652 122.329 15.363 122.767 15.363C123.127 15.363 123.456 15.2978 123.765 15.1674C124.074 15.037 124.325 14.8414 124.531 14.5871L124.841 14.9392C124.602 15.2326 124.3 15.4543 123.939 15.6108C123.578 15.7672 123.185 15.8455 122.76 15.8455C122.213 15.8455 121.723 15.7216 121.292 15.4804C120.86 15.2391 120.525 14.9066 120.287 14.4763C120.042 14.046 119.92 13.5635 119.92 13.0158C119.92 12.4747 120.036 11.9922 120.261 11.5554C120.487 11.1251 120.802 10.786 121.208 10.5448C121.607 10.3036 122.058 10.1797 122.561 10.1797C123.063 10.1797 123.507 10.297 123.907 10.5383C124.306 10.7795 124.615 11.112 124.847 11.5358C125.072 11.9661 125.188 12.4486 125.188 12.9898L125.163 13.1397ZM121.498 10.9164C121.189 11.0925 120.938 11.3337 120.757 11.6532C120.57 11.9727 120.461 12.3247 120.435 12.729H124.654C124.634 12.3313 124.525 11.9727 124.338 11.6597C124.151 11.3468 123.9 11.099 123.591 10.923C123.282 10.7469 122.934 10.6556 122.548 10.6556C122.155 10.6556 121.807 10.7404 121.498 10.9164Z" fill="white"/>
<path d="M50.9281 28.8958H53.0923V33.8705C52.4611 34.3791 51.7204 34.7768 50.8702 35.0506C50.0264 35.3244 49.1569 35.4614 48.2616 35.4614C47.0056 35.4614 45.8721 35.1875 44.8608 34.6333C43.8496 34.0791 43.0574 33.3163 42.4842 32.3383C41.9109 31.3604 41.6211 30.265 41.6211 29.0393C41.6211 27.8135 41.9109 26.7117 42.4842 25.7402C43.0574 24.7622 43.8561 23.9994 44.8737 23.4452C45.8914 22.891 47.0314 22.6172 48.3003 22.6172C49.3308 22.6172 50.2712 22.7867 51.1214 23.1323C51.9651 23.4778 52.68 23.9798 53.2533 24.6514L51.8105 26.0792C50.8702 25.1273 49.7366 24.6514 48.4098 24.6514C47.5402 24.6514 46.7673 24.8339 46.091 25.2056C45.4148 25.5772 44.8866 26.0923 44.5066 26.7573C44.1266 27.4223 43.9334 28.1852 43.9334 29.0393C43.9334 29.8738 44.1266 30.6236 44.5066 31.2886C44.8866 31.9537 45.4148 32.4753 46.091 32.8599C46.7673 33.2381 47.5338 33.4337 48.3904 33.4337C49.3566 33.4337 50.2003 33.2185 50.9281 32.7947V28.8958Z" fill="white"/>
<path d="M57.5518 34.7867C56.7854 34.3694 56.1928 33.7892 55.7613 33.0459C55.3297 32.3026 55.1172 31.4616 55.1172 30.5227C55.1172 29.5838 55.3297 28.7428 55.7613 28.006C56.1928 27.2693 56.7854 26.6955 57.5518 26.2783C58.3183 25.861 59.1749 25.6523 60.1217 25.6523C61.0879 25.6523 61.9509 25.861 62.711 26.2783C63.4774 26.6955 64.07 27.2693 64.5015 28.006C64.9331 28.7428 65.1456 29.5838 65.1456 30.5227C65.1456 31.4616 64.9331 32.3026 64.5015 33.0459C64.07 33.7892 63.4774 34.3694 62.711 34.7867C61.9445 35.204 61.0814 35.4126 60.1217 35.4126C59.1749 35.4061 58.3183 35.204 57.5518 34.7867ZM62.1313 32.6808C62.6594 32.1331 62.9235 31.4159 62.9235 30.5227C62.9235 29.6295 62.6594 28.9123 62.1313 28.3646C61.6031 27.8169 60.9333 27.5431 60.1217 27.5431C59.3102 27.5431 58.6468 27.8169 58.1251 28.3646C57.6034 28.9123 57.3393 29.6295 57.3393 30.5227C57.3393 31.4159 57.6034 32.1331 58.1251 32.6808C58.6468 33.2284 59.3166 33.5023 60.1217 33.5023C60.9333 33.5023 61.6031 33.2284 62.1313 32.6808Z" fill="white"/>
<path d="M68.9171 34.7867C68.1506 34.3694 67.558 33.7892 67.1265 33.0459C66.695 32.3026 66.4824 31.4616 66.4824 30.5227C66.4824 29.5838 66.695 28.7428 67.1265 28.006C67.558 27.2693 68.1506 26.6955 68.9171 26.2783C69.6835 25.861 70.5402 25.6523 71.487 25.6523C72.4531 25.6523 73.3162 25.861 74.0762 26.2783C74.8427 26.6955 75.4352 27.2693 75.8668 28.006C76.2983 28.7428 76.5108 29.5838 76.5108 30.5227C76.5108 31.4616 76.2983 32.3026 75.8668 33.0459C75.4352 33.7892 74.8427 34.3694 74.0762 34.7867C73.3097 35.204 72.4467 35.4126 71.487 35.4126C70.5337 35.4061 69.6771 35.204 68.9171 34.7867ZM73.4965 32.6808C74.0247 32.1331 74.2887 31.4159 74.2887 30.5227C74.2887 29.6295 74.0247 28.9123 73.4965 28.3646C72.9684 27.8169 72.2985 27.5431 71.487 27.5431C70.6754 27.5431 70.012 27.8169 69.4903 28.3646C68.9686 28.9123 68.7045 29.6295 68.7045 30.5227C68.7045 31.4159 68.9686 32.1331 69.4903 32.6808C70.012 33.2284 70.6819 33.5023 71.487 33.5023C72.2985 33.5023 72.9684 33.2284 73.4965 32.6808Z" fill="white"/>
<path d="M87.9631 25.7619V33.84C87.9631 37.1912 86.2692 38.8669 82.8877 38.8669C81.986 38.8669 81.1229 38.7495 80.3178 38.5213C79.5063 38.2866 78.8364 37.9541 78.3083 37.5107L79.2937 35.8351C79.7059 36.1807 80.2277 36.4545 80.8524 36.6631C81.4836 36.8718 82.1148 36.9761 82.7654 36.9761C83.7959 36.9761 84.5559 36.7349 85.039 36.2654C85.522 35.7895 85.7604 35.0658 85.7604 34.0878V33.5858C85.3868 34.003 84.9295 34.316 84.3884 34.5311C83.8474 34.7463 83.2549 34.8506 82.6108 34.8506C81.7155 34.8506 80.9104 34.655 80.189 34.2703C79.4676 33.8857 78.8944 33.338 78.4822 32.6404C78.0635 31.9362 77.8574 31.1343 77.8574 30.2345C77.8574 29.3283 78.0635 28.5328 78.4822 27.8352C78.9008 27.1376 79.4676 26.603 80.189 26.2183C80.9104 25.8401 81.7219 25.6445 82.6108 25.6445C83.2935 25.6445 83.9118 25.7554 84.4722 25.9836C85.0325 26.2118 85.4963 26.5573 85.8698 27.0202V25.7554H87.9631V25.7619ZM84.9939 32.2035C85.5285 31.7015 85.7926 31.043 85.7926 30.2345C85.7926 29.4391 85.522 28.7871 84.9939 28.2916C84.4593 27.7896 83.7766 27.5418 82.9393 27.5418C82.0955 27.5418 81.4063 27.7896 80.8717 28.2916C80.3371 28.7936 80.0731 29.4391 80.0731 30.2345C80.0731 31.043 80.3371 31.7015 80.8717 32.2035C81.4063 32.7121 82.0955 32.9598 82.9393 32.9598C83.7701 32.9664 84.4593 32.7121 84.9939 32.2035Z" fill="white"/>
<path d="M90.8496 22.0508H93.0524V35.2861H90.8496V22.0508Z" fill="white"/>
<path d="M104.748 31.2321H97.3669C97.4957 31.9362 97.8306 32.4904 98.3781 32.9012C98.9256 33.3119 99.6019 33.514 100.413 33.514C101.444 33.514 102.301 33.1685 102.97 32.4774L104.149 33.8531C103.724 34.3616 103.189 34.7528 102.545 35.0136C101.901 35.2744 101.173 35.4048 100.362 35.4048C99.3313 35.4048 98.4167 35.1962 97.6309 34.7789C96.8452 34.3616 96.2333 33.7814 95.8082 33.0381C95.3766 32.2948 95.1641 31.4538 95.1641 30.5149C95.1641 29.5891 95.3702 28.7545 95.7888 28.0113C96.2075 27.268 96.7872 26.6877 97.5214 26.2704C98.2622 25.8532 99.093 25.6445 100.021 25.6445C100.935 25.6445 101.753 25.8466 102.481 26.2574C103.202 26.6682 103.769 27.2419 104.175 27.9852C104.581 28.7284 104.78 29.5891 104.78 30.5605C104.787 30.73 104.774 30.9517 104.748 31.2321ZM98.2428 28.0699C97.7533 28.4937 97.457 29.0544 97.354 29.7586H102.694C102.597 29.0675 102.314 28.5133 101.83 28.083C101.347 27.6527 100.748 27.444 100.033 27.444C99.3249 27.4375 98.7259 27.6461 98.2428 28.0699Z" fill="white"/>
<path d="M119.84 23.3276C120.632 23.6862 121.237 24.1947 121.662 24.8598C122.088 25.5248 122.294 26.3137 122.294 27.233C122.294 28.1393 122.081 28.9217 121.662 29.5932C121.237 30.2648 120.632 30.7798 119.84 31.1384C119.047 31.497 118.113 31.673 117.044 31.673H114.262V35.2785H111.969V22.793H117.044C118.12 22.793 119.047 22.9755 119.84 23.3276ZM119.215 29.0716C119.73 28.6413 119.988 28.0284 119.988 27.233C119.988 26.4376 119.73 25.8247 119.215 25.3944C118.7 24.9641 117.94 24.7555 116.941 24.7555H114.262V29.7106H116.941C117.94 29.7171 118.7 29.5019 119.215 29.0716Z" fill="white"/>
<path d="M124.553 22.0507H126.756V35.286H124.553V22.0507Z" fill="white"/>
<path d="M136.418 26.6616C137.152 27.3332 137.519 28.3503 137.519 29.6999V35.2809H135.439V34.1204C135.168 34.5377 134.782 34.8571 134.286 35.0723C133.783 35.294 133.184 35.4048 132.482 35.4048C131.78 35.4048 131.162 35.2809 130.634 35.0397C130.106 34.7985 129.7 34.4594 129.41 34.0226C129.12 33.5858 128.979 33.0968 128.979 32.5491C128.979 31.695 129.294 31.0039 129.919 30.4888C130.55 29.9737 131.536 29.7129 132.888 29.7129H135.323V29.5695C135.323 28.9045 135.123 28.3894 134.73 28.0373C134.337 27.6787 133.751 27.5027 132.978 27.5027C132.45 27.5027 131.928 27.5875 131.42 27.7505C130.911 27.92 130.479 28.1482 130.125 28.4481L129.262 26.8246C129.758 26.4465 130.35 26.1531 131.04 25.951C131.735 25.7489 132.469 25.6445 133.242 25.6445C134.627 25.6511 135.683 25.9901 136.418 26.6616ZM134.415 33.4032C134.846 33.1489 135.149 32.7838 135.323 32.3079V31.1995H133.049C131.78 31.1995 131.149 31.6233 131.149 32.4643C131.149 32.8686 131.31 33.188 131.626 33.4293C131.941 33.6705 132.386 33.7879 132.946 33.7879C133.494 33.7814 133.983 33.6575 134.415 33.4032Z" fill="white"/>
<path d="M148.971 25.7604L144.565 36.0488C144.153 37.0855 143.657 37.8092 143.064 38.233C142.478 38.6568 141.763 38.8654 140.932 38.8654C140.462 38.8654 139.999 38.7872 139.541 38.6307C139.084 38.4742 138.71 38.259 138.414 37.9917L139.296 36.3487C139.509 36.5508 139.76 36.7138 140.044 36.8312C140.333 36.9485 140.623 37.0072 140.913 37.0072C141.3 37.0072 141.622 36.9029 141.873 36.7008C142.124 36.4987 142.356 36.1596 142.568 35.6837L142.729 35.3121L138.627 25.7539H140.92L143.882 32.8019L146.858 25.7539H148.971V25.7604Z" fill="white"/>
<path d="M37.392 23.3071L31.4728 19.8516L26.6035 24.6111L31.0542 28.9663L37.392 25.263C37.7398 25.0609 37.9523 24.6958 37.9523 24.2851C37.9523 23.8743 37.7398 23.5092 37.392 23.3071Z" fill="white"/>
<path d="M30.4649 19.261L23.9467 15.4534L9.67383 8.04688L25.8017 23.8315L30.4649 19.261Z" fill="white"/>
<path d="M9.90625 40.9458L23.9731 33.1023L30.0468 29.5555L25.8023 25.4023L9.90625 40.9458Z" fill="white"/>
<path d="M8.72245 8.68359L8.70312 40.5528L24.9984 24.6117L8.72245 8.68359Z" fill="white"/>
</svg>
